<?xml version="1.0" encoding="UTF-8" standalone="no"?>
<!DOCTYPE svg PUBLIC "-//W3C//DTD SVG 1.1//EN" "http://www.w3.org/Graphics/SVG/1.1/DTD/svg11.dtd">
<svg width="100%" height="100%" viewBox="0 0 787 389" version="1.1" xmlns="http://www.w3.org/2000/svg" xmlns:xlink="http://www.w3.org/1999/xlink" xml:space="preserve" xmlns:serif="http://www.serif.com/" style="fill-rule:evenodd;clip-rule:evenodd;stroke-linejoin:round;stroke-miterlimit:2;">
    <g transform="matrix(1,0,0,1,-2864,-3706)">
        <g id="Artboard2" transform="matrix(0.984234,0,0,1,56.894,-0.815746)">
            <rect x="2852.07" y="3706.82" width="799.2" height="388.01" style="fill:none;"/>
            <clipPath id="_clip1">
                <rect x="2852.07" y="3706.82" width="799.2" height="388.01"/>
            </clipPath>
            <g clip-path="url(#_clip1)">
                <g transform="matrix(1.01602,0,0,1,1664.6,2829.58)">
                    <ellipse cx="1911.65" cy="1221.43" rx="43.7" ry="43.814" style="fill:rgb(17,112,255);"/>
                </g>
                <g transform="matrix(12.2863,0,0,50.0644,-11122.1,-20573.6)">
                    <path d="M1202.48,486.871C1202.48,485.837 1199.01,485 1194.73,485L1194.73,485C1192.68,485 1190.71,485.197 1189.25,485.548C1187.8,485.899 1186.99,486.374 1186.99,486.871L1186.99,490.875C1186.99,490.944 1186.76,491 1186.47,491C1186.18,491 1185.95,490.944 1185.95,490.875C1185.95,490.438 1185.95,489 1185.95,489L1178.73,489L1178.73,490.88C1178.73,491.376 1179.54,491.852 1180.99,492.202C1182.45,492.553 1184.41,492.75 1186.47,492.75L1186.47,492.75C1190.75,492.75 1194.21,491.913 1194.21,490.88L1194.21,490.75L1202.48,490.75L1202.48,489L1194.21,489L1194.21,486.875C1194.21,486.842 1194.27,486.81 1194.37,486.787C1194.46,486.763 1194.59,486.75 1194.73,486.75C1195.02,486.75 1195.25,486.806 1195.25,486.875C1195.25,487.313 1195.25,488.75 1195.25,488.75L1202.48,488.75L1202.48,486.871Z" style="fill:rgb(17,112,255);"/>
                </g>
                <g transform="matrix(12.2863,0,0,50.0644,-11449.8,-20570.3)">
                    <path d="M1196.05,486.787C1196.05,485.754 1192.59,484.917 1188.31,484.917L1188.31,484.917C1184.03,484.917 1180.57,485.754 1180.57,486.787L1180.57,488.667L1187.79,488.667L1187.79,486.792C1187.79,486.723 1188.02,486.667 1188.31,486.667C1188.6,486.667 1188.83,486.723 1188.83,486.792L1188.83,490.796C1188.83,491.293 1189.64,491.768 1191.09,492.119C1192.55,492.47 1194.52,492.667 1196.57,492.667L1196.57,492.667C1200.85,492.667 1204.32,491.83 1204.32,490.796L1204.32,486.792C1204.32,486.723 1204.55,486.667 1204.83,486.667C1205.12,486.667 1205.35,486.723 1205.35,486.792C1205.35,487.229 1205.35,488.667 1205.35,488.667L1212.58,488.667L1212.58,486.787C1212.58,485.754 1209.11,484.917 1204.83,484.917L1204.83,484.917C1200.56,484.917 1197.09,485.754 1197.09,486.787L1197.09,490.792C1197.09,490.861 1196.86,490.917 1196.57,490.917C1196.29,490.917 1196.05,490.861 1196.05,490.792L1196.05,486.787Z" style="fill:rgb(17,112,255);"/>
                </g>
                <g transform="matrix(12.2863,0,0,50.0644,-11659.2,-20564)">
                    <path d="M1196.57,486.666C1196.57,486.169 1195.75,485.692 1194.3,485.341C1192.84,484.989 1190.87,484.792 1188.81,484.792L1188.81,484.792C1184.54,484.792 1181.08,485.628 1181.08,486.659L1181.08,492.542L1188.31,492.542L1188.31,486.667C1188.31,486.598 1188.54,486.542 1188.83,486.542L1188.83,486.542C1189.11,486.542 1189.34,486.598 1189.34,486.667L1189.34,490.672C1189.34,491.168 1190.16,491.643 1191.61,491.994C1193.06,492.345 1195.03,492.542 1197.09,492.542L1197.09,492.542C1201.36,492.542 1204.83,491.705 1204.83,490.672L1204.83,488.792L1197.6,488.792L1197.6,490.667C1197.6,490.7 1197.55,490.732 1197.45,490.755C1197.36,490.779 1197.23,490.792 1197.09,490.792L1197.09,490.792C1196.8,490.792 1196.57,490.736 1196.57,490.667L1196.57,486.666Z" style="fill:rgb(17,112,255);"/>
                </g>
            </g>
        </g>
    </g>
</svg>
